<?xml version="1.0" encoding="utf-8"?>
<!-- Generator: Adobe Illustrator 25.3.1, SVG Export Plug-In . SVG Version: 6.00 Build 0)  -->
<svg version="1.1" id="Layer_1" xmlns="http://www.w3.org/2000/svg" xmlns:xlink="http://www.w3.org/1999/xlink" x="0px" y="0px"
	 viewBox="0 0 2160 2160" style="enable-background:new 0 0 2160 2160;" xml:space="preserve">
<style type="text/css">
	.st0{fill:url(#SVGID_1_);}
</style>
<linearGradient id="SVGID_1_" gradientUnits="userSpaceOnUse" x1="1080" y1="39.7149" x2="1080" y2="2128.0979">
	<stop  offset="4.528621e-07" style="stop-color:#F7BD08"/>
	<stop  offset="1" style="stop-color:#F68A1D"/>
</linearGradient>
<path class="st0" d="M427.87,1158.25l-374.32,37.12c-13.24,1.31-22.77,13.36-21.01,26.55c24.89,185.75,98.05,356.21,206.47,498.34
	c8.08,10.6,23.35,12.4,33.66,3.95l290.95-238.48c9.66-7.92,11.39-21.97,4.02-32.06c-58.29-79.73-98.39-173.6-114.23-275.51
	C451.49,1165.78,440.33,1157.01,427.87,1158.25z M1706.59,1178.16c-15.84,101.91-55.94,195.77-114.23,275.51
	c-7.37,10.08-5.64,24.14,4.02,32.06l290.95,238.48c10.31,8.45,25.57,6.65,33.66-3.95c108.42-142.13,181.58-312.58,206.47-498.34
	c1.77-13.19-7.76-25.24-21.01-26.55l-374.32-37.12C1719.67,1157.01,1708.51,1165.78,1706.59,1178.16z M1887.33,435.79
	l-290.95,238.48c-9.66,7.92-11.39,21.97-4.02,32.06c58.29,79.73,98.39,173.6,114.23,275.51c1.92,12.38,13.08,21.15,25.54,19.91
	l374.32-37.12c13.24-1.31,22.77-13.36,21.01-26.55c-24.89-185.75-98.05-356.21-206.47-498.34
	C1912.9,429.15,1897.64,427.34,1887.33,435.79z M1080,23.07c-240.72,0-462.59,80.46-640.27,215.96
	c-10.59,8.08-12.38,23.34-3.93,33.64l238.47,290.94c7.94,9.68,22.02,11.38,32.13,3.99C811.15,491.03,940.3,445.84,1080,445.84
	s268.85,45.19,373.61,121.75c10.11,7.39,24.19,5.69,32.13-3.99l238.47-290.94c8.44-10.3,6.66-25.56-3.93-33.64
	C1542.59,103.53,1320.72,23.07,1080,23.07z M53.55,964.63l374.32,37.12c12.46,1.24,23.62-7.53,25.54-19.91
	c15.84-101.91,55.94-195.77,114.23-275.51c7.37-10.08,5.64-24.14-4.02-32.06L272.67,435.79c-10.31-8.45-25.57-6.65-33.66,3.95
	C130.59,581.87,57.43,752.33,32.54,938.08C30.77,951.28,40.3,963.32,53.55,964.63z M1485.73,1596.39
	c-7.94-9.68-22.02-11.38-32.13-3.99c-104.76,76.57-233.91,121.75-373.61,121.75s-268.85-45.19-373.61-121.75
	c-10.11-7.39-24.19-5.69-32.13,3.99L435.8,1887.33c-8.44,10.3-6.66,25.56,3.93,33.64c177.68,135.5,399.55,215.96,640.27,215.96
	s462.59-80.46,640.27-215.96c10.59-8.08,12.38-23.34,3.93-33.64L1485.73,1596.39z"/>
</svg>
