<?xml version="1.0" standalone="no"?>
<!DOCTYPE svg PUBLIC "-//W3C//DTD SVG 20010904//EN"
 "http://www.w3.org/TR/2001/REC-SVG-20010904/DTD/svg10.dtd">
<svg version="1.0" xmlns="http://www.w3.org/2000/svg"
 width="498.000000pt" height="498.000000pt" viewBox="0 0 498.000000 498.000000"
 preserveAspectRatio="xMidYMid meet">
<metadata>
Created by potrace 1.14, written by Peter Selinger 2001-2017
</metadata>
<g transform="translate(0.000000,498.000000) scale(0.100000,-0.100000)"
fill="#000000" stroke="none">
<path d="M2308 4975 c-2 -2 -36 -6 -77 -9 -41 -4 -84 -9 -95 -11 -19 -4 -67
-12 -121 -20 -112 -17 -371 -98 -515 -162 -176 -79 -399 -210 -504 -295 -57
-48 -66 -34 303 -483 240 -292 252 -305 278 -305 13 0 56 20 94 45 144 93 290
157 458 201 133 34 180 39 381 38 139 -1 196 -5 277 -22 181 -39 359 -112 519
-214 88 -56 97 -60 122 -42 25 17 575 689 583 712 12 32 -9 60 -88 115 -240
168 -557 317 -792 372 -9 3 -43 11 -77 19 -34 8 -74 17 -90 20 -16 3 -40 8
-54 10 -14 3 -47 8 -75 11 -27 4 -61 9 -75 11 -30 6 -447 14 -452 9z"/>
<path d="M481 3951 c-202 -273 -365 -646 -425 -976 -31 -167 -31 -187 3 -204
15 -9 165 -27 386 -47 33 -3 76 -7 95 -9 19 -2 64 -7 100 -10 36 -3 81 -8 100
-10 44 -4 177 -17 210 -20 52 -4 68 21 84 127 9 62 82 270 121 348 21 41 57
105 80 141 60 94 67 107 60 129 -3 10 -50 53 -103 96 -53 43 -99 80 -102 84
-3 3 -41 35 -85 70 -44 35 -82 67 -85 70 -3 3 -27 24 -55 45 -57 46 -93 75
-109 90 -6 6 -47 39 -90 75 -108 87 -121 87 -185 1z"/>
<path d="M4374 3998 c-16 -12 -31 -25 -34 -28 -3 -3 -30 -25 -60 -50 -30 -25
-57 -47 -60 -50 -3 -3 -40 -34 -84 -69 -43 -35 -88 -71 -100 -81 -11 -10 -77
-64 -146 -120 -196 -160 -212 -176 -205 -203 4 -12 29 -56 55 -97 91 -144 151
-283 190 -437 12 -48 26 -107 32 -131 12 -47 37 -64 80 -57 13 2 55 7 93 10
78 6 140 13 200 20 22 2 72 7 110 10 39 4 81 8 95 10 14 2 61 7 105 10 44 4
91 8 105 10 14 2 54 6 90 10 36 4 75 14 88 22 22 13 23 19 17 76 -16 165 -102
458 -193 662 -55 123 -139 273 -214 382 -90 130 -110 143 -164 101z"/>
<path d="M2415 3832 c-240 -12 -470 -86 -670 -216 -104 -68 -273 -230 -347
-333 -170 -238 -251 -492 -250 -788 0 -369 122 -671 374 -931 118 -121 217
-195 363 -268 197 -98 378 -140 606 -138 377 3 693 136 951 400 177 182 279
362 342 604 30 115 39 196 38 349 -1 346 -128 660 -367 908 -282 292 -638 434
-1040 413z"/>
<path d="M949 2306 c-2 -2 -44 -7 -94 -11 -49 -3 -101 -8 -115 -10 -14 -2 -54
-6 -90 -10 -36 -3 -87 -8 -115 -11 -27 -3 -68 -6 -90 -9 -22 -2 -94 -9 -160
-15 -66 -7 -129 -13 -140 -15 -11 -2 -32 -4 -48 -4 -15 -1 -36 -10 -48 -22
-23 -23 -23 -45 6 -194 64 -331 214 -679 413 -958 64 -90 88 -101 135 -66 33
24 308 249 317 259 3 3 27 24 55 45 27 22 59 48 70 57 11 9 67 56 125 103 108
89 130 111 130 130 0 6 -23 47 -51 90 -116 183 -180 345 -224 565 -2 8 -4 20
-4 27 -2 25 -57 63 -72 49z"/>
<path d="M3993 2300 c-14 -6 -25 -22 -31 -47 -5 -21 -17 -72 -27 -113 -39
-166 -105 -320 -204 -475 -28 -43 -51 -84 -51 -91 0 -24 -7 -18 547 -471 96
-79 181 -143 189 -143 33 0 57 26 140 150 202 306 361 721 390 1021 5 52 4 59
-18 73 -12 8 -50 17 -83 21 -33 3 -78 8 -100 10 -43 5 -103 11 -205 20 -72 7
-129 13 -205 20 -57 6 -112 12 -205 20 -36 4 -76 8 -90 10 -14 2 -35 -1 -47
-5z"/>
<path d="M1528 1263 c-14 -16 -76 -91 -139 -168 -134 -165 -160 -197 -297
-364 -125 -151 -135 -169 -119 -201 19 -38 211 -164 397 -262 115 -60 358
-156 439 -173 9 -2 44 -11 78 -20 35 -9 73 -18 85 -20 13 -3 46 -9 74 -15 50
-11 73 -14 189 -28 124 -14 523 -6 615 13 14 3 52 10 85 15 33 5 96 19 140 30
44 11 90 23 103 25 26 6 237 80 267 94 319 148 579 313 571 365 -3 23 -66 104
-343 441 -192 234 -243 291 -265 293 -19 2 -49 -11 -99 -43 -157 -103 -354
-183 -546 -222 -138 -28 -423 -25 -567 5 -189 41 -361 111 -524 216 -40 25
-83 46 -95 46 -13 0 -35 -12 -49 -27z"/>
</g>
</svg>
